<?xml version="1.0" standalone="no"?>
<!DOCTYPE svg PUBLIC "-//W3C//DTD SVG 1.1//EN" "http://www.w3.org/Graphics/SVG/1.1/DTD/svg11.dtd">
<svg width="145" height="145" version="1.1" xmlns="http://www.w3.org/2000/svg">
 <desc>Zint Generated Symbol</desc>
 <g id="barcode" fill="#000000">
  <rect x="0" y="0" width="145" height="145" fill="#FFFFFF"/>
  <path d="M20 20h35v5h-35ZM65 20h5v10h-5ZM75 20h5v5h-5ZM90 20h35v5h-35ZM20 25h5v25h-5ZM50 25h5v25h-5ZM80 25h5v5h-5ZM90 25h5v25h-5ZM120 25h5v25h-5ZM30 30h15v15h-15ZM65 30h20v5h-20ZM100 30h15v15h-15ZM65 35h5v5h-5ZM75 35h10v5h-10ZM60 40h5v5h-5ZM75 40h5v5h-5ZM65 45h10v5h-10ZM80 45h5v10h-5ZM20 50h35v5h-35ZM60 50h5v10h-5ZM70 50h5v5h-5ZM90 50h35v5h-35ZM30 60h10v5h-10ZM50 60h15v5h-15ZM75 60h20v5h-20ZM100 60h5v5h-5ZM25 65h5v5h-5ZM35 65h10v5h-10ZM60 65h5v5h-5ZM70 65h15v5h-15ZM90 65h5v5h-5ZM105 65h20v5h-20ZM20 70h10v5h-10ZM35 70h5v5h-5ZM50 70h10v5h-10ZM65 70h5v5h-5ZM75 70h5v5h-5ZM85 70h5v5h-5ZM110 70h5v5h-5ZM25 75h5v5h-5ZM45 75h5v5h-5ZM70 75h15v5h-15ZM95 75h10v5h-10ZM120 75h5v5h-5ZM25 80h10v5h-10ZM45 80h25v5h-25ZM75 80h5v10h-5ZM85 80h15v5h-15ZM115 80h5v5h-5ZM60 85h5v5h-5ZM90 85h5v5h-5ZM105 85h5v5h-5ZM120 85h5v5h-5ZM20 90h35v5h-35ZM60 90h15v5h-15ZM90 90h10v5h-10ZM105 90h20v5h-20ZM20 95h5v25h-5ZM50 95h5v25h-5ZM70 95h5v5h-5ZM95 95h10v5h-10ZM110 95h5v5h-5ZM120 95h5v10h-5ZM30 100h15v15h-15ZM65 100h5v5h-5ZM90 100h15v5h-15ZM60 105h10v10h-10ZM75 105h10v5h-10ZM100 105h10v5h-10ZM115 105h5v5h-5ZM95 110h5v5h-5ZM105 110h10v5h-10ZM65 115h5v5h-5ZM85 115h10v5h-10ZM105 115h5v5h-5ZM115 115h10v5h-10ZM20 120h35v5h-35ZM70 120h15v5h-15ZM90 120h5v5h-5ZM100 120h5v5h-5ZM115 120h5v5h-5Z"/>
 </g>
</svg>
